<?xml version="1.0" encoding="utf-8"?>
<svg viewBox="0 0 640 512" xmlns="http://www.w3.org/2000/svg">
  <path fill="#cc0000" d="M64 64V352H576V64H64zM0 64C0 28.7 28.7 0 64 0H576c35.3 0 64 28.7 64 64V352c0 35.3-28.7 64-64 64H64c-35.3 0-64-28.7-64-64V64zM128 448H512c17.7 0 32 14.3 32 32s-14.3 32-32 32H128c-17.7 0-32-14.3-32-32s14.3-32 32-32z" style="pointer-events: none;" transform="matrix(1, 0, 0, 1, 0, 7.105427357601002e-15)"/>
  <path fill="#282828" d="M 420.48 105.33 C 420.48 96.545 414.118 89.446 406.243 89.446 C 398.369 89.446 392.008 96.545 392.008 105.33 L 392.008 208.578 C 392.008 212.947 388.804 216.521 384.89 216.521 C 380.974 216.521 377.772 212.947 377.772 208.578 L 377.772 121.215 C 377.772 112.428 371.409 105.33 363.535 105.33 C 355.662 105.33 349.299 112.428 349.299 121.215 L 349.299 256.232 C 349.299 256.976 349.299 257.77 349.344 258.515 L 322.429 229.923 C 315.31 222.378 304.055 222.676 297.249 230.618 C 290.442 238.56 290.754 251.119 297.871 258.713 L 347.875 311.827 C 367.05 332.228 392.541 343.595 419.056 343.595 L 427.598 343.595 C 470.84 343.595 505.896 304.48 505.896 256.232 L 505.896 152.984 C 505.896 144.197 499.535 137.099 491.66 137.099 C 483.786 137.099 477.424 144.197 477.424 152.984 L 477.424 208.578 C 477.424 212.947 474.221 216.521 470.307 216.521 C 466.391 216.521 463.187 212.947 463.187 208.578 L 463.187 121.215 C 463.187 112.428 456.826 105.33 448.952 105.33 C 441.078 105.33 434.715 112.428 434.715 121.215 L 434.715 208.578 C 434.715 212.947 431.513 216.521 427.598 216.521 C 423.683 216.521 420.48 212.947 420.48 208.578 L 420.48 105.33 Z" style="" transform="matrix(1, 0, 0, 1, 0, 7.105427357601002e-15)"/>
</svg>