<?xml version="1.0" standalone="no"?>
<!DOCTYPE svg PUBLIC "-//W3C//DTD SVG 20010904//EN"
 "http://www.w3.org/TR/2001/REC-SVG-20010904/DTD/svg10.dtd">
<svg version="1.0" xmlns="http://www.w3.org/2000/svg"
 width="640.000000pt" height="640.000000pt" viewBox="0 0 640.000000 640.000000"
 preserveAspectRatio="xMidYMid meet">
<metadata>
Created by potrace 1.14, written by Peter Selinger 2001-2017
</metadata>
<g transform="translate(0.000000,640.000000) scale(0.100000,-0.100000)"
fill="#000000" stroke="none">
<path d="M539 5755 c-3 -2 -18 -6 -35 -9 -167 -30 -355 -176 -433 -338 -76
-157 -71 -36 -68 -1743 1 -841 6 -1543 11 -1560 4 -16 9 -37 11 -45 2 -8 4
-16 5 -17 2 -2 3 -6 5 -10 1 -5 7 -21 13 -36 7 -16 12 -30 12 -32 0 -17 83
-128 129 -174 88 -86 141 -120 246 -156 71 -24 80 -25 180 -31 50 -3 98 -7
108 -9 9 -1 17 1 17 7 0 5 4 7 8 4 9 -5 50 -6 247 -7 148 0 187 1 196 7 4 2
10 0 14 -6 4 -6 10 -8 14 -6 4 3 37 5 72 6 35 0 80 0 99 1 19 1 40 1 45 1 105
-6 265 -5 265 1 0 5 4 6 8 3 5 -3 38 -5 73 -6 151 -1 285 -1 299 -1 8 1 31 1
50 0 41 -1 35 -1 123 3 37 2 67 1 67 -2 0 -3 25 -5 55 -5 30 0 55 2 55 5 0 3
52 3 115 0 63 -3 115 -1 115 3 0 5 4 6 8 3 9 -5 50 -6 247 -7 148 0 187 1 196
7 4 2 10 0 14 -6 4 -6 10 -8 14 -6 4 3 37 5 72 6 35 0 80 0 99 1 19 1 40 1 45
1 105 -6 265 -5 265 1 0 5 4 6 8 3 5 -3 38 -5 73 -6 151 -1 285 -1 299 -1 8 1
31 1 50 0 41 -1 35 -1 123 3 37 2 67 1 67 -2 0 -3 25 -5 55 -5 30 0 55 2 55 5
0 3 52 3 115 0 63 -3 115 -1 115 3 0 5 4 6 8 3 9 -5 50 -6 247 -7 148 0 187 1
196 7 4 2 10 0 14 -6 4 -6 10 -8 14 -6 4 3 37 5 72 6 35 0 80 0 99 1 19 1 40
1 45 1 105 -6 265 -5 265 1 0 5 4 6 8 3 12 -7 115 -8 237 -3 172 8 303 66 426
188 59 59 86 96 118 160 22 46 43 98 46 116 3 18 10 44 15 58 10 27 9 3096 -1
3125 -3 8 -11 35 -18 60 -41 146 -176 307 -316 376 -43 21 -82 39 -89 41 -6 1
-38 9 -71 18 -53 13 -378 15 -2706 15 -1455 0 -2648 -2 -2650 -5z m245 -636
c111 5 176 6 176 1 0 -3 26 -4 57 -3 32 1 58 2 58 3 0 1 28 2 63 3 34 1 62 0
62 -3 0 -6 109 -4 116 2 2 3 24 2 49 -2 24 -4 50 -3 57 1 6 4 15 6 19 4 6 -4
80 -6 119 -4 8 1 29 0 45 0 37 -2 145 -3 165 -2 8 1 31 1 50 0 19 0 42 0 50 0
8 0 40 0 70 0 30 0 62 0 70 0 8 1 31 1 50 0 19 0 42 0 50 0 8 0 40 0 70 0 30
0 62 0 70 0 8 1 31 1 50 0 19 0 42 0 50 0 30 1 127 0 218 -2 50 -1 92 0 92 3
0 3 29 3 65 0 35 -3 71 -3 79 0 8 3 51 3 96 0 44 -3 80 -3 80 0 0 3 29 3 65 0
35 -3 71 -3 79 0 8 3 51 3 96 0 44 -3 80 -3 80 0 0 3 29 3 65 0 35 -3 71 -3
79 0 8 3 51 3 96 0 44 -3 80 -1 80 3 0 5 4 6 8 3 9 -5 50 -6 247 -7 148 0 187
1 196 7 4 2 10 1 13 -4 2 -4 32 -5 65 -2 33 3 68 3 77 0 10 -4 35 -4 55 0 21
4 42 4 48 0 6 -3 35 -3 65 0 30 3 62 3 72 0 10 -4 35 -4 55 0 21 4 42 4 48 0
6 -3 35 -3 65 0 30 3 62 3 72 0 10 -4 35 -4 55 0 21 4 42 4 48 0 6 -3 35 -3
65 0 30 3 62 3 72 0 10 -4 35 -4 55 0 21 4 42 4 48 0 6 -3 35 -3 65 0 30 3 62
3 72 0 10 -4 35 -4 55 0 21 4 42 4 48 0 6 -3 35 -3 65 0 30 3 62 3 72 0 10 -4
35 -4 55 0 21 4 42 4 48 1 6 -4 38 -4 71 -1 34 3 63 4 66 1 2 -3 24 -4 48 -2
l43 2 2 -57 c1 -31 4 -61 7 -65 3 -5 2 -9 -3 -9 -4 0 -8 -25 -8 -55 0 -30 2
-55 5 -55 3 0 4 -30 2 -67 -2 -38 -3 -72 -3 -78 0 -5 0 -59 0 -120 0 -60 0
-117 0 -125 0 -8 0 -40 0 -70 0 -30 0 -62 0 -70 0 -8 0 -31 0 -50 1 -19 1 -42
0 -50 0 -8 0 -42 0 -75 0 -33 0 -67 0 -75 -1 -8 0 -26 0 -40 1 -14 2 -50 2
-80 0 -30 1 -103 2 -163 1 -59 0 -107 -3 -107 -3 0 -5 -25 -5 -55 0 -30 2 -55
5 -55 3 0 4 -30 2 -67 -2 -38 -3 -72 -3 -78 0 -5 0 -59 0 -120 0 -60 0 -117 0
-125 0 -8 0 -40 0 -70 0 -30 0 -62 0 -70 0 -8 0 -31 0 -50 1 -19 1 -42 0 -50
0 -8 0 -42 0 -75 0 -33 0 -68 0 -77 0 -10 0 -34 0 -53 0 -19 0 -43 0 -52 0
-10 0 -71 0 -137 1 -65 -2 -122 -5 -127 -3 -5 -1 -9 4 -9 4 0 6 -22 2 -50 -3
-27 -3 -54 0 -60 4 -6 4 -28 1 -48 -6 -37 -7 -37 -54 -37 -26 0 -47 -4 -47 -8
0 -5 -4 -6 -8 -3 -9 5 -50 6 -247 7 -148 0 -187 -1 -196 -7 -4 -2 -10 0 -14 6
-4 6 -10 8 -14 6 -7 -5 -99 -7 -141 -5 -8 1 -31 0 -50 0 -19 -1 -75 -2 -125
-1 -158 1 -280 1 -295 1 -8 0 -64 0 -125 0 -60 0 -117 0 -125 0 -8 -1 -31 -1
-50 0 -41 1 -35 1 -123 -3 -37 -2 -67 -1 -67 2 0 3 -25 5 -55 5 -30 0 -55 -2
-55 -5 0 -3 -56 -3 -125 0 -69 3 -125 3 -125 0 0 -3 -27 -5 -60 -5 -33 0 -60
2 -60 5 0 4 -107 4 -120 -1 -3 -1 -8 -1 -11 -1 -3 1 -24 1 -45 1 -62 1 -131 2
-242 4 -56 1 -102 0 -102 -3 0 -3 -27 -5 -60 -5 -33 0 -60 2 -60 5 0 6 -109 4
-116 -2 -2 -3 -24 -2 -49 2 -24 4 -50 3 -57 -1 -6 -4 -16 -5 -20 -3 -5 3 -57
5 -116 4 -59 -1 -111 -2 -117 -2 -5 0 -30 1 -55 1 -25 0 -52 0 -60 0 -8 -1
-28 0 -45 1 -16 0 -60 0 -98 -2 -37 -2 -67 -1 -67 2 0 3 -25 5 -55 5 -30 0
-55 -2 -55 -5 0 -3 -52 -3 -115 0 -63 3 -115 1 -115 -3 0 -5 -4 -6 -8 -3 -9 5
-50 6 -247 7 -148 0 -187 -1 -196 -7 -4 -2 -10 0 -14 6 -4 6 -10 8 -14 6 -7
-5 -99 -7 -141 -5 -8 1 -31 0 -50 0 -19 -1 -91 -2 -160 -2 -69 0 -131 0 -137
0 -7 0 -42 0 -78 0 -36 0 -73 0 -82 1 -10 0 -26 0 -36 1 -13 0 -17 9 -17 42 0
23 -1 49 -1 57 -1 8 0 29 1 45 1 27 1 89 0 314 -1 35 -3 68 -6 73 -3 4 -2 8 3
8 4 0 6 36 3 80 -3 45 -3 88 0 96 3 8 3 44 0 79 -3 36 -3 65 0 65 3 0 4 44 2
97 -1 54 -2 123 -1 153 0 30 1 61 0 68 -1 6 -1 18 -2 25 -1 6 -1 28 0 47 2 56
3 154 2 168 -1 6 -1 18 -2 25 -1 6 -1 28 0 47 2 56 3 154 2 168 -1 6 -1 18 -2
25 -1 6 -1 28 0 47 2 56 3 154 2 168 -1 6 -1 18 -2 25 -1 6 -1 28 0 47 2 47 3
143 2 155 0 6 0 51 0 100 -1 185 -2 218 -7 227 -3 4 -2 8 3 8 4 0 6 36 3 80
-3 45 -3 88 0 96 3 8 3 44 0 79 -3 36 -3 65 0 65 3 0 5 21 5 47 0 47 1 48 35
54 19 3 39 3 44 0 5 -2 32 -3 60 -2z"/>
<path d="M4032 4859 c-39 -8 -75 -39 -95 -83 -15 -30 -21 -114 -17 -226 1 -30
2 -66 1 -80 0 -25 0 -222 0 -250 0 -8 0 -62 0 -120 0 -58 0 -112 0 -120 0 -8
0 -46 0 -85 0 -38 0 -77 0 -85 2 -171 -11 -210 -70 -210 -43 0 -71 31 -71 78
-1 20 -2 238 -3 483 l-2 446 -29 37 c-62 82 -160 82 -223 0 l-28 -37 0 -709
c0 -389 -4 -708 -8 -708 -5 0 -23 15 -39 33 -265 284 -270 288 -344 290 -101
1 -177 -82 -178 -194 0 -63 24 -118 76 -172 81 -85 193 -203 308 -326 186
-200 265 -275 339 -324 192 -127 353 -174 586 -171 213 3 309 31 462 136 100
68 227 223 274 335 11 26 25 57 30 68 6 12 12 30 14 40 2 11 4 20 5 20 3 0 9
31 24 115 11 69 14 197 13 666 l-2 580 -25 37 c-63 93 -184 83 -238 -18 -14
-25 -16 -75 -18 -330 -1 -165 -2 -308 -3 -318 -1 -10 -12 -29 -25 -42 -30 -29
-62 -26 -93 10 l-22 25 0 469 c0 452 -1 471 -20 508 -35 66 -99 93 -166 70
-40 -14 -84 -64 -92 -107 -3 -19 -7 -241 -7 -493 l-1 -459 -29 -23 c-33 -26
-61 -25 -90 5 -20 20 -21 31 -21 573 -1 516 -2 554 -19 590 -29 60 -90 90
-154 76z"/>
<path d="M1335 1282 c-2 -2 -25 -3 -52 -3 -118 1 -232 -70 -289 -179 -26 -49
-29 -65 -28 -140 1 -101 24 -158 88 -224 38 -38 99 -75 132 -80 7 -1 17 -5 20
-9 4 -4 896 -7 1983 -7 1965 0 1976 0 2037 20 74 25 147 90 184 165 21 42 25
64 24 135 -1 101 -23 158 -88 224 -64 64 -125 89 -223 90 -46 1 -83 3 -83 6 0
3 -26 4 -57 3 -32 -1 -58 -2 -58 -3 0 -1 -28 -2 -63 -3 -34 -1 -62 0 -62 3 0
6 -109 4 -115 -2 -3 -2 -29 -1 -60 2 -30 3 -55 2 -55 -3 0 -4 -4 -6 -8 -3 -7
4 -81 7 -122 5 -8 0 -62 0 -120 0 -58 1 -135 0 -173 -1 -37 -2 -67 -1 -67 2 0
3 -26 4 -57 3 -32 -1 -58 -2 -58 -3 0 -1 -28 -2 -63 -3 -34 -1 -62 0 -62 3 0
6 -109 4 -115 -2 -3 -2 -29 -1 -60 2 -30 3 -55 2 -55 -3 0 -4 -4 -6 -8 -3 -7
4 -81 7 -122 5 -8 0 -62 0 -120 0 -58 1 -135 0 -173 -1 -37 -2 -67 -1 -67 2 0
3 -26 4 -57 3 -32 -1 -58 -2 -58 -3 0 -1 -28 -2 -63 -3 -34 -1 -62 0 -62 3 0
6 -109 4 -115 -2 -3 -2 -29 -1 -60 2 -30 3 -55 2 -55 -3 0 -4 -4 -6 -8 -3 -7
4 -81 7 -122 5 -8 0 -62 0 -120 0 -58 1 -135 0 -173 -1 -37 -2 -67 -1 -67 2 0
3 -26 4 -57 3 -32 -1 -58 -2 -58 -3 0 -1 -28 -2 -63 -3 -34 -1 -62 0 -62 3 0
6 -109 4 -115 -2 -3 -2 -29 -1 -60 2 -30 3 -55 2 -55 -3 0 -4 -4 -6 -8 -3 -5
3 -30 5 -58 5 -102 1 -171 3 -227 4 -32 1 -60 1 -62 -1z"/>
</g>
</svg>
